<svg width="648" height="648" viewBox="0 0 648 648" fill="none" xmlns="http://www.w3.org/2000/svg">
<path d="M140.986 213.661C140.986 213.661 196.156 123.47 309.116 123.47C422.077 123.47 474.614 211.039 474.614 211.039H627.86L621.729 248.693C621.729 248.693 617.353 263.577 610.344 265.332H620.852C620.852 265.332 624.362 278.471 603.347 324H647.998C647.998 324 649.753 403.683 553.431 441.337C553.431 441.337 503.515 457.098 478.124 429.952C478.124 429.952 427.342 524.53 309.116 524.53C190.902 524.53 137.487 427.331 137.487 427.331H0.00195312L21.8943 387.933H7.01066L24.5268 355.533H54.3054L59.5591 343.271H45.5417L79.6964 280.226H98.9563L106.831 260.955H90.1926L115.584 213.672H140.986V213.661Z" fill="white"/>
<path d="M310.758 503.436C407.406 503.436 485.751 423.911 485.751 325.8C485.751 227.701 407.406 148.164 310.758 148.164C214.121 148.164 135.766 227.701 135.766 325.8C135.766 423.911 214.121 503.436 310.758 503.436Z" fill="#FDB927"/>
<path d="M390.533 343.98C374.176 363.802 364.917 370.586 348.312 370.586C342.665 370.586 339.717 369.326 341.292 366.581L360.991 326.981H368.506C376.898 326.981 375.728 334.046 373.456 343.609C373.04 344.947 374.063 345.026 375.065 343.856L393.784 310.95C394.696 308.88 392.344 308.464 391.174 310.039C381.792 322.774 371.926 321.829 367.763 321.829H364.377L385.403 281.689H393.886C404.562 282.353 409.534 291.42 406.452 313.279H410.884L426.353 282.791C427.602 280.215 424.958 277.864 422.044 277.864L317.094 277.898C311.03 277.898 310.76 282.555 316.576 282.555C321.301 282.555 321.054 289.328 316.812 292.601L272.263 327.971L281.251 369.731C281.915 372.881 283.94 374.388 287.428 374.388H374.21C377.787 374.388 379.261 372.926 380.419 371.43L396.147 344.284C398.307 340.414 393.278 340.661 390.533 343.98ZM330.065 324.911L322.426 324.844C321.886 324.844 321.459 325.282 321.459 325.811C321.459 326.34 321.897 326.779 322.426 326.779L330.177 326.7C332.787 326.7 335.195 327.037 334.542 328.196L314.484 366.513C311.997 371.081 306.71 369.922 305.877 366.266L295.944 314.921L330.875 287.809C334.351 284.816 341.033 279.968 344.453 280.024L352.07 279.99C356.705 279.945 358.358 282.128 357.267 284.918L355.917 287.516C355.051 288.968 352.295 289.148 349.966 289.148L345.567 289.17C345.027 289.17 344.6 289.609 344.6 290.149C344.6 290.689 345.038 291.116 345.567 291.116H349.91C351.777 291.116 354.14 291.161 353.273 292.568L337.062 323.471C336.297 324.686 332.934 324.911 330.065 324.911Z" fill="#552583"/>
<path d="M258.032 369.742C255.68 369.663 254.173 368.055 253.644 366.502C252.902 364.263 252.958 360.292 253.869 358.548L294.358 286.751C295.021 285.424 296.653 282.645 298.666 282.656C302.233 282.656 303.785 277.965 297.733 277.965H265.31C259.247 277.965 259.179 282.578 264.995 282.578C267.369 282.578 268.303 284.895 267.639 286.313L258.673 302.558C257.548 304.346 255.073 304.481 252.452 304.481L244.734 304.459C244.194 304.459 243.767 304.898 243.767 305.438C243.767 305.978 244.194 306.405 244.734 306.405H252.395C254.477 306.405 256.13 307.035 254.927 309.443L225.047 363.881C222.887 366.873 218.601 367.537 218.848 361.8L229.479 282.071C229.895 279.574 229.232 277.898 226.577 277.898L210.546 277.92C208.633 277.92 207.452 278.854 206.541 280.091L200.803 287.291C200.061 288.034 198.441 288.034 196.663 288.034L183.197 288C182.657 288 182.23 288.439 182.23 288.968C182.23 289.508 182.668 289.935 183.197 289.935H194.177C196.123 289.935 198.407 290.396 197.586 291.308L182.173 310.691C181.712 311.231 180.216 311.389 179.293 311.389L174.94 311.366C174.4 311.366 173.961 311.805 173.961 312.334C173.961 312.874 174.4 313.313 174.94 313.313H178.573C179.698 313.313 179.71 313.875 179.248 314.37L164.77 332.572C164.016 333.281 162.565 333.427 161.158 333.427L148.378 333.416C147.838 333.416 147.411 333.844 147.411 334.384C147.411 334.912 147.838 335.351 148.378 335.351L159.358 335.362C161.023 335.362 162.306 335.666 161.44 336.791L140.841 362.621C136.971 367.548 118.33 370.057 114.696 370.057L184.356 239.716C185.019 238.219 187.607 235.936 190.296 235.936H205.078C212.053 235.936 211.851 231.289 205.787 231.289H131.402C125.339 231.289 125.102 235.936 132.077 235.936H145.847C149.751 235.936 151.011 238.298 150.01 240.222L148.041 243.81C147.377 244.98 146.455 245.442 142.675 245.442L118.341 245.419C117.801 245.419 117.374 245.858 117.374 246.387C117.374 246.927 117.812 247.354 118.341 247.354H142.607C143.935 247.354 145.904 247.703 144.655 250.065L141.246 256.399C140.661 257.355 139.176 257.805 137.466 257.805L126.43 257.783C125.89 257.783 125.451 258.222 125.451 258.75C125.451 259.29 125.89 259.718 126.43 259.718L137.41 259.729C138.985 259.729 139.019 260.764 138.107 262.215L130.277 276.773C129.614 278.021 128.342 278.179 125.845 278.179L121.446 278.157C120.906 278.157 120.479 278.595 120.479 279.124C120.479 279.664 120.917 280.091 121.446 280.091H125.789C127.442 280.091 127.881 281.014 127.139 282.6L120.704 294.559C119.747 296.258 118.375 296.944 114.1 296.944L89.7776 296.921C89.2376 296.921 88.8101 297.36 88.8101 297.889C88.8101 298.429 89.2489 298.856 89.7776 298.856H114.044C116.789 298.901 117.801 300.116 116.71 302.063L104.155 325.665C103.413 326.7 101.354 326.857 97.8663 326.857L73.5327 326.835C72.9927 326.835 72.5652 327.274 72.5652 327.814C72.5652 328.342 73.004 328.781 73.5327 328.781L97.7988 328.792C100.701 328.792 102.479 328.905 101.613 330.446L94.3788 344.047C93.0513 346.129 89.3164 346.129 87.8651 346.129L80.1477 346.106C79.6189 346.106 79.1802 346.534 79.1802 347.074C79.1802 347.614 79.6189 348.052 80.1477 348.052H87.8089C90.5089 348.052 91.9376 348.525 91.2289 349.976L81.5652 368.145C80.6877 369.765 76.9077 369.832 74.0052 369.832L36.3855 369.81C35.8455 369.81 35.418 370.248 35.418 370.788C35.418 371.317 35.8567 371.756 36.3855 371.756L73.9377 371.767C76.4352 371.767 79.5739 372.071 78.4152 374.073L72.2502 385.672C71.6652 386.628 69.5615 386.707 66.5353 386.707L58.8178 386.685C58.2778 386.685 57.8503 387.123 57.8503 387.663C57.8503 388.192 58.2891 388.631 58.8178 388.631H66.479C68.3465 388.631 70.619 388.845 69.8315 390.262L65.9728 397.676C64.724 399.509 63.4865 401.152 60.4941 401.152H41.5942C34.6192 401.152 34.8667 405.798 40.9192 405.798L151.765 405.854C154.993 405.854 155.106 405.416 156.636 403.042L173.072 374.377L257.087 374.388C263.15 374.433 261.598 369.866 258.032 369.742ZM192.141 361.203C191.308 365.94 186.55 369.067 180.576 370.642L174.411 372.183L179.473 363.06C180.801 360.562 177.887 359.1 174.692 362.812C153.227 387.798 146.399 399.757 113.301 399.847L104.403 399.869C101.725 399.869 98.7551 398.812 100.578 396.236L112.289 374.433L156.748 374.445C162.812 374.445 161.26 369.877 157.693 369.753C155.342 369.675 152.766 368.325 150.943 365.456C150.437 364.657 149.335 361.496 151.067 359.055L168.088 336.431H196.393L192.141 361.203ZM198.542 332.584H170.923L205.854 286.526L198.542 332.584Z" fill="#552583"/>
<path d="M618.693 346.837C618.232 344.565 617.411 345.948 615.915 348.806C615.453 349.672 614.002 349.695 612.551 349.695L608.107 349.717C607.578 349.717 607.128 350.156 607.128 350.685C607.128 351.225 607.567 351.663 608.107 351.663L612.472 351.652C614.137 351.652 614.16 352.766 613.383 354.431C610.335 360.956 607.185 365.321 603 370.541C602.336 371.373 600.648 372.082 599.321 372.082L594.866 372.104C594.326 372.104 593.887 372.543 593.887 373.083C593.887 373.623 594.326 374.051 594.866 374.051H599.231C601.425 374.051 599.208 375.412 598.826 375.907C591.075 386.246 585.731 390.858 580.039 395.493C579.375 396.033 576.157 395.842 573.907 395.831L569.509 395.853C568.969 395.853 568.541 396.292 568.541 396.832C568.541 397.36 568.98 397.799 569.509 397.799L573.851 397.81C577.17 397.81 574.684 399.712 574.177 400.128C562.106 410.185 544.106 413.437 535.883 412.402C509.142 409.049 503.64 388.777 501.672 380.666C501.255 378.978 499.984 375.502 499.557 373.353C498.724 369.112 510.784 367.908 514.114 370.136C519.165 373.511 530.933 376.976 540.203 377.009C548.775 377.043 566.302 370.822 571.387 356.096C576.574 341.043 563.535 324.337 557.764 318.566C550.406 311.209 543.465 299.486 546.39 290.891C548.595 284.411 552.285 281.475 560.205 281.475C570.42 281.475 577.867 288.045 577.867 297.371C577.867 298.204 577.35 299.194 576.686 299.194L573.075 299.216C572.546 299.216 572.107 299.655 572.107 300.195C572.107 300.724 572.546 301.162 573.075 301.162H576.472C577.429 301.162 578.025 301.882 577.777 303.052C577.114 306.18 576.889 308.362 576.214 311.501C575.82 313.312 578.475 314.572 579.397 313.245L595.462 284.557C596.621 282.397 594.045 281.824 592.132 282.476C587.745 284.006 580.59 285.064 578.047 283.241C572.04 278.932 566.572 276.165 558.18 276.165C543.904 276.165 533.903 279.675 527.49 291.442C526.995 292.354 525.589 292.342 524.385 292.342L521.64 292.331C521.1 292.331 520.673 292.77 520.673 293.31C520.673 293.839 521.111 294.277 521.64 294.277L523.969 294.255C524.97 294.255 525.634 294.536 525.139 295.695C524.689 296.741 524.306 297.866 523.924 299.025C522.304 304.11 522.821 311.254 525.364 317.61C525.533 318.026 524.993 318.217 524.014 318.217L519.638 318.24C519.109 318.24 518.67 318.678 518.67 319.207C518.67 319.747 519.109 320.175 519.638 320.175H524.003C525.983 320.186 526.455 320.377 527.276 321.536C529.526 324.708 531.844 327.06 534.746 330.75C535.658 331.908 531.754 332.235 529.684 332.223L512.37 332.212C511.83 332.212 511.403 332.651 511.403 333.191C511.403 333.731 511.842 334.158 512.37 334.158L529.909 334.136C532.733 334.136 537.559 334.091 538.099 334.71C542.34 339.603 547.47 347.141 548.336 353.486C548.584 355.308 547.898 356.085 545.648 356.085H543.308C542.768 356.085 542.329 356.512 542.329 357.052C542.329 357.592 542.768 358.031 543.308 358.031H545.366C547.155 358.031 548.123 358.323 547.718 359.651C545.445 366.918 542.036 372.183 528.154 372.104C513.608 372.026 510.649 357.772 514.901 342.888C515.745 339.918 514.868 338.647 513.529 340.976L503.404 356.895C503.157 357.266 502.178 358.166 500.637 358.166L499.197 358.154C498.657 358.154 498.218 358.593 498.218 359.133C498.218 359.673 498.668 360.101 499.208 360.101C500.49 360.101 500.997 360.787 500.502 361.496L496.778 367.289C490.669 353.295 480.409 336.06 474.942 329.782L475.032 329.478C488.52 328.668 508.422 316.024 511.684 304.729C517.343 285.131 498.308 277.886 487.935 277.886L442.328 277.898C436.264 277.898 435.826 282.487 441.642 282.487C444.781 282.487 447.526 285.244 446.142 288.022L436.039 306.225C435.207 307.721 432.08 307.631 428.007 307.631H423.586C423.046 307.631 422.607 308.059 422.607 308.599C422.607 309.139 423.046 309.566 423.586 309.566H427.94C430.842 309.566 434.048 309.746 432.968 311.816L421.021 333.382C420.436 334.372 418.895 334.473 414.822 334.473L410.412 334.485C409.872 334.485 409.445 334.923 409.445 335.463C409.445 336.003 409.872 336.442 410.412 336.442L414.721 336.431C417.927 336.431 419.12 336.858 418.208 338.523L402.256 367.368C400.343 369.449 398.082 369.832 394.179 369.832C388.362 369.832 388.43 374.444 394.494 374.444H433.553C439.617 374.444 438.064 369.753 434.498 369.753C432.395 369.764 430.167 365.894 431.562 363.577L451.497 325.811H453.522C462.387 325.811 464.536 340.357 466.201 356.242C466.324 357.378 464.153 357.446 459.732 357.446L448.639 357.457C448.099 357.457 447.672 357.896 447.672 358.436C447.672 358.976 448.111 359.403 448.639 359.403H459.608C462.522 359.403 466.583 359.426 466.684 360.371C467.449 367.334 468.023 373.466 469.351 379.057C469.767 380.801 466.651 380.531 463.332 380.531L449.213 380.553C448.673 380.553 448.246 380.992 448.246 381.521C448.246 382.061 448.684 382.499 449.213 382.499L463.321 382.522C467.753 382.522 470.037 382.511 470.296 383.422C476.37 405.697 502.425 423.235 527.76 422.268C549.495 421.435 567.855 409.612 577.249 402.074C589.747 392.051 608.118 371.036 615.6 355.758C616.995 352.923 619.188 349.335 618.693 346.837ZM472.568 317.182C469.519 319.68 464.716 322.56 463.793 321.648C462.499 320.366 458.472 317.587 456.301 316.586L474.402 283.5C475.144 282.341 475.999 281.7 478.002 281.7C485.044 281.7 487.35 289.339 484.054 298.856C481.725 305.527 477.957 312.75 472.568 317.182Z" fill="#552583"/>
<path d="M252.642 248.479C248.986 253.215 244.126 254.419 238.67 254.419H237.128L246.736 235.396C247.197 234.529 248.21 233.843 249.458 233.843C250.662 233.843 250.516 231.436 248.941 231.436H233.798C232.516 231.436 232.055 233.843 233.258 233.843C234.552 233.843 234.788 235.272 234.17 236.476L225.575 253.429C224.99 254.34 224.045 254.588 222.987 254.869C221.716 255.195 220.827 257.479 222.29 257.479H246.466C248.333 257.479 248.761 256.793 249.267 256.118L254.127 248.592C254.813 247.692 253.351 247.568 252.642 248.479Z" fill="#552583"/>
<path d="M325.463 232.122C324.731 232.527 322.999 232.729 322.245 232.111C320.321 230.502 316.53 229.276 314.539 229.276C308.835 229.276 304.707 230.401 302.232 235.778C300.117 240.357 302.288 244.204 307.317 246.533C309.499 247.534 312.39 248.851 311.277 251.483C310.467 253.395 308.239 253.587 306.225 253.575C303.525 253.553 299.464 251.528 298.834 247.714C298.62 246.466 297.18 246.758 296.764 247.422L293.322 254.273C292.782 255.184 294.199 256.208 294.762 255.6C295.92 254.352 298.452 254.059 299.7 254.892C301.41 256.028 305.82 258.03 308.453 258.008C314.224 257.963 318.038 256.478 321.199 251.528C324.09 247.006 322.313 242.528 317.048 240.042C314.258 238.726 311.884 236.408 313.122 233.854C313.931 232.189 316.418 232.549 317.644 232.763C319.995 233.157 323.01 235.373 323.359 237.331C323.505 238.163 324.563 238.321 325.024 237.578L326.835 233.348C327.263 232.504 325.924 231.874 325.463 232.122Z" fill="#552583"/>
<path d="M493.232 238.928L495.336 235.047C496.247 233.348 494.751 231.413 492.332 231.413H464.106C462.07 231.413 462.666 233.539 463.499 233.539C465.31 233.539 465.85 235.744 464.748 237.612L456.254 253.238C454.994 254.734 454.173 255.375 452.361 255.375C450.91 255.375 450.393 257.502 452.429 257.502H481.038C482.196 257.502 482.714 257.085 483.119 256.5L487.011 251.337C487.967 250.088 485.909 250.088 485.29 250.718C480.351 255.657 475.064 255.51 471.228 255.51H467.898L471.813 246.769H472.645C475.154 246.769 478.056 246.747 478.821 248.648C479.024 249.109 480.273 249.48 480.768 248.648L484.109 241.966C484.649 240.976 483.141 240.796 482.736 241.504C481.42 243.867 475.615 243.226 474.096 243.226H473.264L478.146 233.596H483.58C486.955 233.596 489.869 235.981 490.825 238.591C491.05 239.221 492.861 239.716 493.232 238.928Z" fill="#552583"/>
<path d="M421.008 231.413H410.962C408.926 231.413 409.522 233.539 410.355 233.539C412.503 233.539 414.461 236.059 413.279 238.377L409.117 245.982L399.948 232.56C399.33 231.728 397.878 231.323 396.641 231.323H386.752C384.716 231.323 385.188 233.427 386.021 233.427C388.125 233.427 387.573 235.002 387.056 236.115L379.181 251.28C378.686 252.484 376.526 252.653 375.873 251.123L369.776 231.267C369.517 230.479 365.962 230.513 365.051 231.267L349.774 243.855L341.865 243.867C340.29 243.867 339.671 244.519 339.671 245.352C339.671 246.184 340.267 246.938 341.932 246.938L346.072 246.927L341.932 250.335C339.626 252.057 337.275 254.408 335.711 254.408H334.744C333.248 254.408 332.415 254.655 332.415 255.859C332.415 257.063 333.045 257.479 334.462 257.479H346.781C349.11 257.479 348.649 254.453 347.49 254.453C346.219 254.453 344.115 252.833 346.061 250.549L349.819 246.949H357.232C361.631 246.949 364.702 252.045 362.092 253.632L360.056 254.757C359.111 255.252 358.684 257.49 360.056 257.49H384.142C385.931 257.49 385.56 255.128 384.727 255.128C382.263 255.128 383.422 251.584 383.906 250.639L390.228 238.658L399.116 255.882C399.701 256.962 400.218 257.502 401.265 257.502H404.662C405.742 257.502 406.102 256.883 406.608 256.05L416.722 237.769C418.353 234.507 419.602 233.562 421.649 233.562C422.471 233.55 423.044 231.413 421.008 231.413ZM353.655 243.889L363.071 236.194L363.116 243.889H353.655Z" fill="#552583"/>
<path d="M278.383 230.266C269.911 230.266 261.193 234.439 259.449 243.327C257.93 251.055 263.285 259.088 272.735 259.088C281.735 259.088 290.049 253.193 291.725 244.666C293.401 236.082 287.023 230.266 278.383 230.266ZM280.779 246.556C278.09 251.91 273.601 255.094 270.733 253.654C267.875 252.225 267.729 246.713 270.406 241.358C273.095 235.992 277.584 232.819 280.453 234.248C283.321 235.699 283.467 241.201 280.779 246.556Z" fill="#552583"/>
<path d="M449.639 243.237H438.76C436.724 243.237 437.32 245.363 438.153 245.363C439.008 245.363 439.807 245.813 439.807 247.186C439.807 251.584 437.928 253.272 434.159 253.272C430.019 253.272 428.523 248.243 431.313 242.089C433.09 238.152 437.804 234.462 443.395 234.462C446.815 234.462 449.695 235.205 450.134 238.411C450.235 239.198 451.417 239.198 451.833 238.456L454.409 233.832C454.702 233.337 454.251 232.741 453.464 232.696C452.8 232.651 451.315 233.506 450.337 232.786C448.154 231.166 443.418 229.602 439.84 229.602C434.002 229.602 425.845 230.918 420.344 240.481C415.361 249.132 422.617 258.278 429.333 258.289C433.068 258.301 437.41 255.533 439.897 254.487L442.675 256.366C443.092 256.861 443.958 257.491 444.79 257.491H445.825C446.782 257.491 447.153 256.186 447.524 255.353L451.788 245.026C452.35 243.991 452.047 243.237 449.639 243.237Z" fill="#552583"/>
<path d="M598.678 232.122C597.947 232.527 596.214 232.729 595.472 232.111C593.548 230.502 589.757 229.276 587.765 229.276C582.073 229.276 577.933 230.401 575.458 235.778C573.343 240.357 575.514 244.204 580.543 246.533C582.714 247.534 585.617 248.851 584.503 251.483C583.693 253.395 581.454 253.587 579.452 253.575C576.763 253.553 572.702 251.528 572.06 247.714C571.858 246.466 570.407 246.758 569.99 247.422L566.537 254.273C565.997 255.184 567.426 256.208 567.977 255.6C569.135 254.352 571.678 254.059 572.915 254.892C574.625 256.028 579.035 258.03 581.668 258.008C587.439 257.963 591.242 256.478 594.414 251.528C597.305 247.006 595.528 242.528 590.252 240.042C587.462 238.726 585.077 236.408 586.325 233.854C587.135 232.189 589.622 232.549 590.859 232.763C593.21 233.157 596.225 235.373 596.574 237.331C596.72 238.163 597.789 238.321 598.239 237.578L600.05 233.348C600.467 232.504 599.128 231.874 598.678 232.122Z" fill="#552583"/>
<path d="M523.022 248.479C519.366 253.215 514.506 254.419 509.061 254.419H507.52L517.127 235.396C517.577 234.529 518.59 233.843 519.85 233.843C521.054 233.843 520.907 231.436 519.332 231.436H504.19C502.896 231.436 502.446 233.843 503.65 233.843C504.932 233.843 505.169 235.272 504.55 236.476L495.944 253.429C495.359 254.34 494.414 254.588 493.356 254.869C492.085 255.195 491.196 257.479 492.659 257.479H516.835C518.702 257.479 519.141 256.793 519.636 256.118L524.496 248.592C525.205 247.692 523.731 247.568 523.022 248.479Z" fill="#552583"/>
<path d="M559.484 233.596C562.859 233.596 565.772 235.981 566.729 238.591C566.954 239.221 568.765 239.716 569.136 238.928L571.24 235.047C572.151 233.348 570.655 231.413 568.236 231.413H539.999C537.974 231.413 538.57 233.539 539.391 233.539C541.202 233.539 541.742 235.744 540.651 237.612L532.158 253.238C530.886 254.734 530.076 255.375 528.265 255.375C526.814 255.375 526.296 257.502 528.344 257.502H556.941C558.111 257.502 558.617 257.085 559.034 256.5L562.915 251.337C563.871 250.088 561.824 250.088 561.194 250.718C556.255 255.657 550.967 255.51 547.131 255.51H543.801L547.716 246.769H548.549C551.069 246.769 553.96 246.747 554.725 248.648C554.939 249.109 556.176 249.48 556.671 248.648L560.012 241.966C560.552 240.976 559.045 240.796 558.64 241.504C557.324 243.867 551.519 243.226 550 243.226H549.167L554.039 233.596H559.484Z" fill="#552583"/>
<path d="M390.533 343.98C374.176 363.802 364.917 370.586 348.312 370.586C342.665 370.586 339.717 369.326 341.292 366.581L360.991 326.981H368.506C376.898 326.981 375.728 334.046 373.456 343.609C373.04 344.947 374.063 345.026 375.065 343.856L393.784 310.95C394.696 308.88 392.344 308.464 391.174 310.039C381.792 322.774 371.926 321.829 367.763 321.829H364.377L385.403 281.689H393.886C404.562 282.353 409.534 291.42 406.452 313.279H410.884L426.353 282.791C427.602 280.215 424.958 277.864 422.044 277.864L317.094 277.898C311.03 277.898 310.76 282.555 316.576 282.555C321.301 282.555 321.054 289.328 316.812 292.601L272.263 327.971L281.251 369.731C281.915 372.881 283.94 374.388 287.428 374.388H374.21C377.787 374.388 379.261 372.926 380.419 371.43L396.147 344.284C398.307 340.414 393.278 340.661 390.533 343.98ZM330.065 324.911L322.426 324.844C321.886 324.844 321.459 325.282 321.459 325.811C321.459 326.34 321.897 326.779 322.426 326.779L330.177 326.7C332.787 326.7 335.195 327.037 334.542 328.196L314.484 366.513C311.997 371.081 306.71 369.922 305.877 366.266L295.944 314.921L330.875 287.809C334.351 284.816 341.033 279.968 344.453 280.024L352.07 279.99C356.705 279.945 358.358 282.128 357.267 284.918L355.917 287.516C355.051 288.968 352.295 289.148 349.966 289.148L345.567 289.17C345.027 289.17 344.6 289.609 344.6 290.149C344.6 290.689 345.038 291.116 345.567 291.116H349.91C351.777 291.116 354.14 291.161 353.273 292.568L337.062 323.471C336.297 324.686 332.934 324.911 330.065 324.911Z" fill="#552583"/>
<path d="M258.032 369.742C255.68 369.663 254.173 368.055 253.644 366.502C252.902 364.263 252.958 360.292 253.869 358.548L294.358 286.751C295.021 285.424 296.653 282.645 298.666 282.656C302.233 282.656 303.785 277.965 297.733 277.965H265.31C259.247 277.965 259.179 282.578 264.995 282.578C267.369 282.578 268.303 284.895 267.639 286.313L258.673 302.558C257.548 304.346 255.073 304.481 252.452 304.481L244.734 304.459C244.194 304.459 243.767 304.898 243.767 305.438C243.767 305.978 244.194 306.405 244.734 306.405H252.395C254.477 306.405 256.13 307.035 254.927 309.443L225.047 363.881C222.887 366.873 218.601 367.537 218.848 361.8L229.479 282.071C229.895 279.574 229.232 277.898 226.577 277.898L210.546 277.92C208.633 277.92 207.452 278.854 206.541 280.091L200.803 287.291C200.061 288.034 198.441 288.034 196.663 288.034L183.197 288C182.657 288 182.23 288.439 182.23 288.968C182.23 289.508 182.668 289.935 183.197 289.935H194.177C196.123 289.935 198.407 290.396 197.586 291.308L182.173 310.691C181.712 311.231 180.216 311.389 179.293 311.389L174.94 311.366C174.4 311.366 173.961 311.805 173.961 312.334C173.961 312.874 174.4 313.313 174.94 313.313H178.573C179.698 313.313 179.71 313.875 179.248 314.37L164.77 332.572C164.016 333.281 162.565 333.427 161.158 333.427L148.378 333.416C147.838 333.416 147.411 333.844 147.411 334.384C147.411 334.912 147.838 335.351 148.378 335.351L159.358 335.362C161.023 335.362 162.306 335.666 161.44 336.791L140.841 362.621C136.971 367.548 118.33 370.057 114.696 370.057L184.356 239.716C185.019 238.219 187.607 235.936 190.296 235.936H205.078C212.053 235.936 211.851 231.289 205.787 231.289H131.402C125.339 231.289 125.102 235.936 132.077 235.936H145.847C149.751 235.936 151.011 238.298 150.01 240.222L148.041 243.81C147.377 244.98 146.455 245.442 142.675 245.442L118.341 245.419C117.801 245.419 117.374 245.858 117.374 246.387C117.374 246.927 117.812 247.354 118.341 247.354H142.607C143.935 247.354 145.904 247.703 144.655 250.065L141.246 256.399C140.661 257.355 139.176 257.805 137.466 257.805L126.43 257.783C125.89 257.783 125.451 258.222 125.451 258.75C125.451 259.29 125.89 259.718 126.43 259.718L137.41 259.729C138.985 259.729 139.019 260.764 138.107 262.215L130.277 276.773C129.614 278.021 128.342 278.179 125.845 278.179L121.446 278.157C120.906 278.157 120.479 278.595 120.479 279.124C120.479 279.664 120.917 280.091 121.446 280.091H125.789C127.442 280.091 127.881 281.014 127.139 282.6L120.704 294.559C119.747 296.258 118.375 296.944 114.1 296.944L89.7776 296.921C89.2376 296.921 88.8101 297.36 88.8101 297.889C88.8101 298.429 89.2489 298.856 89.7776 298.856H114.044C116.789 298.901 117.801 300.116 116.71 302.063L104.155 325.665C103.413 326.7 101.354 326.857 97.8663 326.857L73.5327 326.835C72.9927 326.835 72.5652 327.274 72.5652 327.814C72.5652 328.342 73.004 328.781 73.5327 328.781L97.7988 328.792C100.701 328.792 102.479 328.905 101.613 330.446L94.3788 344.047C93.0513 346.129 89.3164 346.129 87.8651 346.129L80.1477 346.106C79.6189 346.106 79.1802 346.534 79.1802 347.074C79.1802 347.614 79.6189 348.052 80.1477 348.052H87.8089C90.5089 348.052 91.9376 348.525 91.2289 349.976L81.5652 368.145C80.6877 369.765 76.9077 369.832 74.0052 369.832L36.3855 369.81C35.8455 369.81 35.418 370.248 35.418 370.788C35.418 371.317 35.8567 371.756 36.3855 371.756L73.9377 371.767C76.4352 371.767 79.5739 372.071 78.4152 374.073L72.2502 385.672C71.6652 386.628 69.5615 386.707 66.5353 386.707L58.8178 386.685C58.2778 386.685 57.8503 387.123 57.8503 387.663C57.8503 388.192 58.2891 388.631 58.8178 388.631H66.479C68.3465 388.631 70.619 388.845 69.8315 390.262L65.9728 397.676C64.724 399.509 63.4865 401.152 60.4941 401.152H41.5942C34.6192 401.152 34.8667 405.798 40.9192 405.798L151.765 405.854C154.993 405.854 155.106 405.416 156.636 403.042L173.072 374.377L257.087 374.388C263.15 374.433 261.598 369.866 258.032 369.742ZM192.141 361.203C191.308 365.94 186.55 369.067 180.576 370.642L174.411 372.183L179.473 363.06C180.801 360.562 177.887 359.1 174.692 362.812C153.227 387.798 146.399 399.757 113.301 399.847L104.403 399.869C101.725 399.869 98.7551 398.812 100.578 396.236L112.289 374.433L156.748 374.445C162.812 374.445 161.26 369.877 157.693 369.753C155.342 369.675 152.766 368.325 150.943 365.456C150.437 364.657 149.335 361.496 151.067 359.055L168.088 336.431H196.393L192.141 361.203ZM198.542 332.584H170.923L205.854 286.526L198.542 332.584Z" fill="#552583"/>
<path d="M618.693 346.837C618.232 344.565 617.411 345.948 615.915 348.806C615.453 349.672 614.002 349.695 612.551 349.695L608.107 349.717C607.578 349.717 607.128 350.156 607.128 350.685C607.128 351.225 607.567 351.663 608.107 351.663L612.472 351.652C614.137 351.652 614.16 352.766 613.383 354.431C610.335 360.956 607.185 365.321 603 370.541C602.336 371.373 600.648 372.082 599.321 372.082L594.866 372.104C594.326 372.104 593.887 372.543 593.887 373.083C593.887 373.623 594.326 374.051 594.866 374.051H599.231C601.425 374.051 599.208 375.412 598.826 375.907C591.075 386.246 585.731 390.858 580.039 395.493C579.375 396.033 576.157 395.842 573.907 395.831L569.509 395.853C568.969 395.853 568.541 396.292 568.541 396.832C568.541 397.36 568.98 397.799 569.509 397.799L573.851 397.81C577.17 397.81 574.684 399.712 574.177 400.128C562.106 410.185 544.106 413.437 535.883 412.402C509.142 409.049 503.64 388.777 501.672 380.666C501.255 378.978 499.984 375.502 499.557 373.353C498.724 369.112 510.784 367.908 514.114 370.136C519.165 373.511 530.933 376.976 540.203 377.009C548.775 377.043 566.302 370.822 571.387 356.096C576.574 341.043 563.535 324.337 557.764 318.566C550.406 311.209 543.465 299.486 546.39 290.891C548.595 284.411 552.285 281.475 560.205 281.475C570.42 281.475 577.867 288.045 577.867 297.371C577.867 298.204 577.35 299.194 576.686 299.194L573.075 299.216C572.546 299.216 572.107 299.655 572.107 300.195C572.107 300.724 572.546 301.162 573.075 301.162H576.472C577.429 301.162 578.025 301.882 577.777 303.052C577.114 306.18 576.889 308.362 576.214 311.501C575.82 313.312 578.475 314.572 579.397 313.245L595.462 284.557C596.621 282.397 594.045 281.824 592.132 282.476C587.745 284.006 580.59 285.064 578.047 283.241C572.04 278.932 566.572 276.165 558.18 276.165C543.904 276.165 533.903 279.675 527.49 291.442C526.995 292.354 525.589 292.342 524.385 292.342L521.64 292.331C521.1 292.331 520.673 292.77 520.673 293.31C520.673 293.839 521.111 294.277 521.64 294.277L523.969 294.255C524.97 294.255 525.634 294.536 525.139 295.695C524.689 296.741 524.306 297.866 523.924 299.025C522.304 304.11 522.821 311.254 525.364 317.61C525.533 318.026 524.993 318.217 524.014 318.217L519.638 318.24C519.109 318.24 518.67 318.678 518.67 319.207C518.67 319.747 519.109 320.175 519.638 320.175H524.003C525.983 320.186 526.455 320.377 527.276 321.536C529.526 324.708 531.844 327.06 534.746 330.75C535.658 331.908 531.754 332.235 529.684 332.223L512.37 332.212C511.83 332.212 511.403 332.651 511.403 333.191C511.403 333.731 511.842 334.158 512.37 334.158L529.909 334.136C532.733 334.136 537.559 334.091 538.099 334.71C542.34 339.603 547.47 347.141 548.336 353.486C548.584 355.308 547.898 356.085 545.648 356.085H543.308C542.768 356.085 542.329 356.512 542.329 357.052C542.329 357.592 542.768 358.031 543.308 358.031H545.366C547.155 358.031 548.123 358.323 547.718 359.651C545.445 366.918 542.036 372.183 528.154 372.104C513.608 372.026 510.649 357.772 514.901 342.888C515.745 339.918 514.868 338.647 513.529 340.976L503.404 356.895C503.157 357.266 502.178 358.166 500.637 358.166L499.197 358.154C498.657 358.154 498.218 358.593 498.218 359.133C498.218 359.673 498.668 360.101 499.208 360.101C500.49 360.101 500.997 360.787 500.502 361.496L496.778 367.289C490.669 353.295 480.409 336.06 474.942 329.782L475.032 329.478C488.52 328.668 508.422 316.024 511.684 304.729C517.343 285.131 498.308 277.886 487.935 277.886L442.328 277.898C436.264 277.898 435.826 282.487 441.642 282.487C444.781 282.487 447.526 285.244 446.142 288.022L436.039 306.225C435.207 307.721 432.08 307.631 428.007 307.631H423.586C423.046 307.631 422.607 308.059 422.607 308.599C422.607 309.139 423.046 309.566 423.586 309.566H427.94C430.842 309.566 434.048 309.746 432.968 311.816L421.021 333.382C420.436 334.372 418.895 334.473 414.822 334.473L410.412 334.485C409.872 334.485 409.445 334.923 409.445 335.463C409.445 336.003 409.872 336.442 410.412 336.442L414.721 336.431C417.927 336.431 419.12 336.858 418.208 338.523L402.256 367.368C400.343 369.449 398.082 369.832 394.179 369.832C388.362 369.832 388.43 374.444 394.494 374.444H433.553C439.617 374.444 438.064 369.753 434.498 369.753C432.395 369.764 430.167 365.894 431.562 363.577L451.497 325.811H453.522C462.387 325.811 464.536 340.357 466.201 356.242C466.324 357.378 464.153 357.446 459.732 357.446L448.639 357.457C448.099 357.457 447.672 357.896 447.672 358.436C447.672 358.976 448.111 359.403 448.639 359.403H459.608C462.522 359.403 466.583 359.426 466.684 360.371C467.449 367.334 468.023 373.466 469.351 379.057C469.767 380.801 466.651 380.531 463.332 380.531L449.213 380.553C448.673 380.553 448.246 380.992 448.246 381.521C448.246 382.061 448.684 382.499 449.213 382.499L463.321 382.522C467.753 382.522 470.037 382.511 470.296 383.422C476.37 405.697 502.425 423.235 527.76 422.268C549.495 421.435 567.855 409.612 577.249 402.074C589.747 392.051 608.118 371.036 615.6 355.758C616.995 352.923 619.188 349.335 618.693 346.837ZM472.568 317.182C469.519 319.68 464.716 322.56 463.793 321.648C462.499 320.366 458.472 317.587 456.301 316.586L474.402 283.5C475.144 282.341 475.999 281.7 478.002 281.7C485.044 281.7 487.35 289.339 484.054 298.856C481.725 305.527 477.957 312.75 472.568 317.182Z" fill="#552583"/>
<path d="M252.642 248.479C248.986 253.215 244.126 254.419 238.67 254.419H237.128L246.736 235.396C247.197 234.529 248.21 233.843 249.458 233.843C250.662 233.843 250.516 231.436 248.941 231.436H233.798C232.516 231.436 232.055 233.843 233.258 233.843C234.552 233.843 234.788 235.272 234.17 236.476L225.575 253.429C224.99 254.34 224.045 254.588 222.987 254.869C221.716 255.195 220.827 257.479 222.29 257.479H246.466C248.333 257.479 248.761 256.793 249.267 256.118L254.127 248.592C254.813 247.692 253.351 247.568 252.642 248.479Z" fill="#552583"/>
<path d="M325.463 232.122C324.731 232.527 322.999 232.729 322.245 232.111C320.321 230.502 316.53 229.276 314.539 229.276C308.835 229.276 304.707 230.401 302.232 235.778C300.117 240.357 302.288 244.204 307.317 246.533C309.499 247.534 312.39 248.851 311.277 251.483C310.467 253.395 308.239 253.587 306.225 253.575C303.525 253.553 299.464 251.528 298.834 247.714C298.62 246.466 297.18 246.758 296.764 247.422L293.322 254.273C292.782 255.184 294.199 256.208 294.762 255.6C295.92 254.352 298.452 254.059 299.7 254.892C301.41 256.028 305.82 258.03 308.453 258.008C314.224 257.963 318.038 256.478 321.199 251.528C324.09 247.006 322.313 242.528 317.048 240.042C314.258 238.726 311.884 236.408 313.122 233.854C313.931 232.189 316.418 232.549 317.644 232.763C319.995 233.157 323.01 235.373 323.359 237.331C323.505 238.163 324.563 238.321 325.024 237.578L326.835 233.348C327.263 232.504 325.924 231.874 325.463 232.122Z" fill="#552583"/>
<path d="M493.232 238.928L495.336 235.047C496.247 233.348 494.751 231.413 492.332 231.413H464.106C462.07 231.413 462.666 233.539 463.499 233.539C465.31 233.539 465.85 235.744 464.748 237.612L456.254 253.238C454.994 254.734 454.173 255.375 452.361 255.375C450.91 255.375 450.393 257.502 452.429 257.502H481.038C482.196 257.502 482.714 257.085 483.119 256.5L487.011 251.337C487.967 250.088 485.909 250.088 485.29 250.718C480.351 255.657 475.064 255.51 471.228 255.51H467.898L471.813 246.769H472.645C475.154 246.769 478.056 246.747 478.821 248.648C479.024 249.109 480.273 249.48 480.768 248.648L484.109 241.966C484.649 240.976 483.141 240.796 482.736 241.504C481.42 243.867 475.615 243.226 474.096 243.226H473.264L478.146 233.596H483.58C486.955 233.596 489.869 235.981 490.825 238.591C491.05 239.221 492.861 239.716 493.232 238.928Z" fill="#552583"/>
<path d="M421.008 231.413H410.962C408.926 231.413 409.522 233.539 410.355 233.539C412.503 233.539 414.461 236.059 413.279 238.377L409.117 245.982L399.948 232.56C399.33 231.728 397.878 231.323 396.641 231.323H386.752C384.716 231.323 385.188 233.427 386.021 233.427C388.125 233.427 387.573 235.002 387.056 236.115L379.181 251.28C378.686 252.484 376.526 252.653 375.873 251.123L369.776 231.267C369.517 230.479 365.962 230.513 365.051 231.267L349.774 243.855L341.865 243.867C340.29 243.867 339.671 244.519 339.671 245.352C339.671 246.184 340.267 246.938 341.932 246.938L346.072 246.927L341.932 250.335C339.626 252.057 337.275 254.408 335.711 254.408H334.744C333.248 254.408 332.415 254.655 332.415 255.859C332.415 257.063 333.045 257.479 334.462 257.479H346.781C349.11 257.479 348.649 254.453 347.49 254.453C346.219 254.453 344.115 252.833 346.061 250.549L349.819 246.949H357.232C361.631 246.949 364.702 252.045 362.092 253.632L360.056 254.757C359.111 255.252 358.684 257.49 360.056 257.49H384.142C385.931 257.49 385.56 255.128 384.727 255.128C382.263 255.128 383.422 251.584 383.906 250.639L390.228 238.658L399.116 255.882C399.701 256.962 400.218 257.502 401.265 257.502H404.662C405.742 257.502 406.102 256.883 406.608 256.05L416.722 237.769C418.353 234.507 419.602 233.562 421.649 233.562C422.471 233.55 423.044 231.413 421.008 231.413ZM353.655 243.889L363.071 236.194L363.116 243.889H353.655Z" fill="#552583"/>
<path d="M278.383 230.266C269.911 230.266 261.193 234.439 259.449 243.327C257.93 251.055 263.285 259.088 272.735 259.088C281.735 259.088 290.049 253.193 291.725 244.666C293.401 236.082 287.023 230.266 278.383 230.266ZM280.779 246.556C278.09 251.91 273.601 255.094 270.733 253.654C267.875 252.225 267.729 246.713 270.406 241.358C273.095 235.992 277.584 232.819 280.453 234.248C283.321 235.699 283.467 241.201 280.779 246.556Z" fill="#552583"/>
<path d="M449.639 243.237H438.76C436.724 243.237 437.32 245.363 438.153 245.363C439.008 245.363 439.807 245.813 439.807 247.186C439.807 251.584 437.928 253.272 434.159 253.272C430.019 253.272 428.523 248.243 431.313 242.089C433.09 238.152 437.804 234.462 443.395 234.462C446.815 234.462 449.695 235.205 450.134 238.411C450.235 239.198 451.417 239.198 451.833 238.456L454.409 233.832C454.702 233.337 454.251 232.741 453.464 232.696C452.8 232.651 451.315 233.506 450.337 232.786C448.154 231.166 443.418 229.602 439.84 229.602C434.002 229.602 425.845 230.918 420.344 240.481C415.361 249.132 422.617 258.278 429.333 258.289C433.068 258.301 437.41 255.533 439.897 254.487L442.675 256.366C443.092 256.861 443.958 257.491 444.79 257.491H445.825C446.782 257.491 447.153 256.186 447.524 255.353L451.788 245.026C452.35 243.991 452.047 243.237 449.639 243.237Z" fill="#552583"/>
<path d="M598.678 232.122C597.947 232.527 596.214 232.729 595.472 232.111C593.548 230.502 589.757 229.276 587.765 229.276C582.073 229.276 577.933 230.401 575.458 235.778C573.343 240.357 575.514 244.204 580.543 246.533C582.714 247.534 585.617 248.851 584.503 251.483C583.693 253.395 581.454 253.587 579.452 253.575C576.763 253.553 572.702 251.528 572.06 247.714C571.858 246.466 570.407 246.758 569.99 247.422L566.537 254.273C565.997 255.184 567.426 256.208 567.977 255.6C569.135 254.352 571.678 254.059 572.915 254.892C574.625 256.028 579.035 258.03 581.668 258.008C587.439 257.963 591.242 256.478 594.414 251.528C597.305 247.006 595.528 242.528 590.252 240.042C587.462 238.726 585.077 236.408 586.325 233.854C587.135 232.189 589.622 232.549 590.859 232.763C593.21 233.157 596.225 235.373 596.574 237.331C596.72 238.163 597.789 238.321 598.239 237.578L600.05 233.348C600.467 232.504 599.128 231.874 598.678 232.122Z" fill="#552583"/>
<path d="M523.022 248.479C519.366 253.215 514.506 254.419 509.061 254.419H507.52L517.127 235.396C517.577 234.529 518.59 233.843 519.85 233.843C521.054 233.843 520.907 231.436 519.332 231.436H504.19C502.896 231.436 502.446 233.843 503.65 233.843C504.932 233.843 505.169 235.272 504.55 236.476L495.944 253.429C495.359 254.34 494.414 254.588 493.356 254.869C492.085 255.195 491.196 257.479 492.659 257.479H516.835C518.702 257.479 519.141 256.793 519.636 256.118L524.496 248.592C525.205 247.692 523.731 247.568 523.022 248.479Z" fill="#552583"/>
<path d="M559.484 233.596C562.859 233.596 565.772 235.981 566.729 238.591C566.954 239.221 568.765 239.716 569.136 238.928L571.24 235.047C572.151 233.348 570.655 231.413 568.236 231.413H539.999C537.974 231.413 538.57 233.539 539.391 233.539C541.202 233.539 541.742 235.744 540.651 237.612L532.158 253.238C530.886 254.734 530.076 255.375 528.265 255.375C526.814 255.375 526.296 257.502 528.344 257.502H556.941C558.111 257.502 558.617 257.085 559.034 256.5L562.915 251.337C563.871 250.088 561.824 250.088 561.194 250.718C556.255 255.657 550.967 255.51 547.131 255.51H543.801L547.716 246.769H548.549C551.069 246.769 553.96 246.747 554.725 248.648C554.939 249.109 556.176 249.48 556.671 248.648L560.012 241.966C560.552 240.976 559.045 240.796 558.64 241.504C557.324 243.867 551.519 243.226 550 243.226H549.167L554.039 233.596H559.484Z" fill="#552583"/>
<path d="M448.322 210.758C446.151 208.261 443.147 202.951 421.615 184.186C389.958 156.59 348.007 143.99 308.609 143.99C279.562 143.99 254.137 150.504 225.979 166.006C190.103 185.761 175.242 208.463 171.563 213.076C168.852 216.473 168.469 218.453 170.224 219.466C171.484 220.186 173.892 217.553 176.153 214.572C186.818 200.476 200.858 186.503 215.629 178.291C220.219 178.955 226.642 185.345 229.151 188.753C219.701 193.906 204.03 205.831 198.101 210.432C192.983 214.403 191.216 216.62 192.589 218.24C193.736 219.578 197.651 216.935 200.936 214.257C206.606 209.611 223.47 197.652 231.817 193.163C237.499 199.812 235.654 212.097 233.651 214.752C232.571 216.181 232.425 217.711 233.651 218.408C234.821 219.072 236.092 217.385 237.746 215C241.616 209.408 240.064 195.875 236.745 191.003C246.926 184.692 261.528 180.462 270.382 178.46C271.136 179.877 281.857 211.22 283.905 216.912C285.03 220.028 286.132 223.763 288.416 223.054C289.935 222.582 288.933 219.173 287.662 215.742C286.098 211.501 277.987 185.176 275.478 177.38C278.403 175.805 296.021 172.227 300.431 172.396C298.259 183.86 306.371 188.551 315.539 194.57C320.411 197.765 351.382 215.562 357.85 219.567C361.54 221.851 364.409 223.302 365.197 222.222C366.097 220.984 363.599 218.397 360.19 216.406C357.479 214.82 328.668 198.102 316.619 190.497C308.002 185.052 303.367 179.225 305.437 171.564C308.272 170.731 316.957 170.664 325.968 170.731C387.393 171.226 436.634 206.438 442.146 212.086C444.936 214.955 448.829 217.407 450.325 216.237C451.27 215.506 449.627 212.266 448.322 210.758ZM234.169 186.503C232.526 183.736 224.719 176.604 220.477 175.209C230.321 167.907 253.192 157.434 261.877 155.611C263.373 158.109 267.378 168.729 268.717 173.217C261.033 174.882 240.671 182.195 234.169 186.503ZM301.263 166.737C293.253 167.232 278.73 170.394 273.555 171.89C272.216 168.402 268.548 157.602 267.378 154.115C282.127 149.93 299.261 148.467 312.446 149.626C308.778 152.461 302.602 163.587 301.263 166.737ZM341.155 166.242C327.836 165.297 316.946 164.915 307.439 165.905C310.196 158.964 315.708 152.472 319.961 149.626C329.039 149.997 338.41 151.314 345.835 152.787C369.595 157.479 406.529 171.957 422.447 193.31C401.23 179.157 365.984 168.009 341.155 166.242Z" fill="black"/>
<path d="M461.608 421.042C463.881 416.857 465.726 414.483 463.78 413.403C462.002 412.413 460.27 416.294 458.11 420.041C450.932 432.494 443.091 442.777 425.395 458.909C405.786 476.763 383.241 487.147 375.4 489.801C368.718 471.037 343.27 391.095 342.595 388.822C341.594 385.413 340.739 384.435 339.592 384.84C338.298 385.301 339.097 387.157 339.76 390.161C340.424 393.153 370.72 487.731 371.721 491.05C365.714 494.043 341.29 500.871 324.235 501.434C309.048 501.929 291.183 501.434 282.172 499.353C271.608 490.825 247.567 456.884 238.455 438.817C227.7 417.532 220.579 397.946 218.745 389.632C217.867 385.661 216.742 382.792 214.74 383.163C212.58 383.58 213.817 386.718 215.077 390.971C218.306 401.917 223.582 417.431 234.776 439.548C246.633 462.97 267.817 490.443 273.993 497.935C254.643 493.874 231.12 484.807 208.777 468.157C189.518 453.802 172.98 435.521 164.666 422.212C163.238 419.928 161.562 416.688 159.492 418.061C158.558 418.679 159.717 421.278 161.157 423.877C173.228 445.567 202.691 476.279 240.446 493.131C284.444 512.774 332.414 511.728 375.31 495.123C412.84 480.588 445.487 450.708 461.608 421.042Z" fill="black"/>
<path d="M448.322 210.758C446.151 208.261 443.147 202.951 421.615 184.186C389.958 156.59 348.007 143.99 308.609 143.99C279.562 143.99 254.137 150.504 225.979 166.006C190.103 185.761 175.242 208.463 171.563 213.076C168.852 216.473 168.469 218.453 170.224 219.466C171.484 220.186 173.892 217.553 176.153 214.572C186.818 200.476 200.858 186.503 215.629 178.291C220.219 178.955 226.642 185.345 229.151 188.753C219.701 193.906 204.03 205.831 198.101 210.432C192.983 214.403 191.216 216.62 192.589 218.24C193.736 219.578 197.651 216.935 200.936 214.257C206.606 209.611 223.47 197.652 231.817 193.163C237.499 199.812 235.654 212.097 233.651 214.752C232.571 216.181 232.425 217.711 233.651 218.408C234.821 219.072 236.092 217.385 237.746 215C241.616 209.408 240.064 195.875 236.745 191.003C246.926 184.692 261.528 180.462 270.382 178.46C271.136 179.877 281.857 211.22 283.905 216.912C285.03 220.028 286.132 223.763 288.416 223.054C289.935 222.582 288.933 219.173 287.662 215.742C286.098 211.501 277.987 185.176 275.478 177.38C278.403 175.805 296.021 172.227 300.431 172.396C298.259 183.86 306.371 188.551 315.539 194.57C320.411 197.765 351.382 215.562 357.85 219.567C361.54 221.851 364.409 223.302 365.197 222.222C366.097 220.984 363.599 218.397 360.19 216.406C357.479 214.82 328.668 198.102 316.619 190.497C308.002 185.052 303.367 179.225 305.437 171.564C308.272 170.731 316.957 170.664 325.968 170.731C387.393 171.226 436.634 206.438 442.146 212.086C444.936 214.955 448.829 217.407 450.325 216.237C451.27 215.506 449.627 212.266 448.322 210.758ZM234.169 186.503C232.526 183.736 224.719 176.604 220.477 175.209C230.321 167.907 253.192 157.434 261.877 155.611C263.373 158.109 267.378 168.729 268.717 173.217C261.033 174.882 240.671 182.195 234.169 186.503ZM301.263 166.737C293.253 167.232 278.73 170.394 273.555 171.89C272.216 168.402 268.548 157.602 267.378 154.115C282.127 149.93 299.261 148.467 312.446 149.626C308.778 152.461 302.602 163.587 301.263 166.737ZM341.155 166.242C327.836 165.297 316.946 164.915 307.439 165.905C310.196 158.964 315.708 152.472 319.961 149.626C329.039 149.997 338.41 151.314 345.835 152.787C369.595 157.479 406.529 171.957 422.447 193.31C401.23 179.157 365.984 168.009 341.155 166.242Z" fill="black"/>
<path d="M461.608 421.042C463.881 416.857 465.726 414.483 463.78 413.403C462.002 412.413 460.27 416.294 458.11 420.041C450.932 432.494 443.091 442.777 425.395 458.909C405.786 476.763 383.241 487.147 375.4 489.801C368.718 471.037 343.27 391.095 342.595 388.822C341.594 385.413 340.739 384.435 339.592 384.84C338.298 385.301 339.097 387.157 339.76 390.161C340.424 393.153 370.72 487.731 371.721 491.05C365.714 494.043 341.29 500.871 324.235 501.434C309.048 501.929 291.183 501.434 282.172 499.353C271.608 490.825 247.567 456.884 238.455 438.817C227.7 417.532 220.579 397.946 218.745 389.632C217.867 385.661 216.742 382.792 214.74 383.163C212.58 383.58 213.817 386.718 215.077 390.971C218.306 401.917 223.582 417.431 234.776 439.548C246.633 462.97 267.817 490.443 273.993 497.935C254.643 493.874 231.12 484.807 208.777 468.157C189.518 453.802 172.98 435.521 164.666 422.212C163.238 419.928 161.562 416.688 159.492 418.061C158.558 418.679 159.717 421.278 161.157 423.877C173.228 445.567 202.691 476.279 240.446 493.131C284.444 512.774 332.414 511.728 375.31 495.123C412.84 480.588 445.487 450.708 461.608 421.042Z" fill="black"/>
</svg>
