<svg xmlns="http://www.w3.org/2000/svg" viewBox="0 0 20 20" class="design-iconfont">
  <path d="M11.39,10.23 L18.72,2.9 C19.09,2.53 19.09,1.92 18.72,1.55 L18.68,1.51 C18.31,1.14 17.7,1.14 17.33,1.51 L10,8.85 L2.67,1.51 C2.3,1.14 1.69,1.14 1.32,1.51 L1.28,1.55 C0.9,1.92 0.9,2.53 1.28,2.9 L8.61,10.23 L1.28,17.56 C0.91,17.93 0.91,18.54 1.28,18.91 L1.32,18.95 C1.69,19.32 2.3,19.32 2.67,18.95 L10,11.62 L17.33,18.95 C17.7,19.32 18.31,19.32 18.68,18.95 L18.72,18.91 C19.09,18.54 19.09,17.93 18.72,17.56 L11.39,10.23 Z" fill="#000" fill-rule="nonzero"/>
</svg>
